<?xml version="1.0" encoding="utf-8"?>
<!-- Generator: Adobe Illustrator 26.0.1, SVG Export Plug-In . SVG Version: 6.00 Build 0)  -->
<svg version="1.1" id="Layer_1" xmlns="http://www.w3.org/2000/svg" xmlns:xlink="http://www.w3.org/1999/xlink" x="0px" y="0px"
	 viewBox="0 0 412 100" style="enable-background:new 0 0 412 100;" xml:space="preserve">
<g>
	<g>
		<path style="fill:#17B2C0;" d="M40.9,69.9L30.3,93.6l-2.9,3.3l-3.2,1.9H3.7c-2.1,0-3.7-1.7-3.7-3.7V3.7C0,1.7,1.7,0,3.7,0h51
			c8.4,0,15.1,6.8,15.1,15.1v31.3l-4.7,8.4l-3.7,3.5L40.9,69.9z"/>
		<linearGradient id="SVGID_1_" gradientUnits="userSpaceOnUse" x1="32.6886" y1="57.9605" x2="51.177" y2="76.4489">
			<stop  offset="0" style="stop-color:#1C7EB2"/>
			<stop  offset="0.7162" style="stop-color:#1B74B1"/>
			<stop  offset="0.8928" style="stop-color:#1B77B1"/>
			<stop  offset="1" style="stop-color:#1C7EB2"/>
		</linearGradient>
		<path style="fill:url(#SVGID_1_);" d="M69.9,43.1v3.4c0,4.3-2.2,7-2.2,7L28.6,96.8c0,0-2.4,2.1-4.1,2.1h-3c3.7,0,6.8-3,6.8-6.8
			c0,0,0,0,0,0V64.7c0-4.1,3.3-7.4,7.4-7.4h20.1C59.6,57.3,69.9,46,69.9,43.1z"/>
		
			<linearGradient id="SVGID_00000036239952641794452770000008213250396944771716_" gradientUnits="userSpaceOnUse" x1="65.5672" y1="52.7455" x2="61.0077" y2="48.186">
			<stop  offset="0" style="stop-color:#0997BF"/>
			<stop  offset="1" style="stop-color:#17B2C0"/>
		</linearGradient>
		<path style="fill:url(#SVGID_00000036239952641794452770000008213250396944771716_);" d="M52.3,57.3h2.5c8.3,0,15.1-6.8,15.1-15.1
			v-2.9L52.3,57.3z"/>
		
			<linearGradient id="SVGID_00000086654813669821380970000006640610605734173878_" gradientUnits="userSpaceOnUse" x1="26.3434" y1="96.8092" x2="22.124" y2="92.5898">
			<stop  offset="0" style="stop-color:#0997BF"/>
			<stop  offset="1" style="stop-color:#17B2C0"/>
		</linearGradient>
		<path style="fill:url(#SVGID_00000086654813669821380970000006640610605734173878_);" d="M16.1,98.9h5.4c3.7,0,6.8-3,6.8-6.8v-5.6
			L16.1,98.9z"/>
	</g>
	<g>
		
			<linearGradient id="SVGID_00000069390590701646192240000003853397827148489091_" gradientUnits="userSpaceOnUse" x1="81.6029" y1="42.2613" x2="396.0473" y2="116.2483">
			<stop  offset="0" style="stop-color:#17B2C0"/>
			<stop  offset="1" style="stop-color:#1587C9"/>
		</linearGradient>
		<path style="fill:url(#SVGID_00000069390590701646192240000003853397827148489091_);" d="M124.7,14.8c4.5,0,8.6,0.7,12.5,2.1
			c3.8,1.4,7.2,3.6,10,6.4c2.8,2.8,5,6.4,6.6,10.7c1.6,4.3,2.4,9.3,2.4,15c0,5-0.6,9.7-1.9,14c-1.3,4.3-3.2,7.9-5.9,11
			c-2.6,3.1-5.9,5.5-9.8,7.3c-3.9,1.8-8.5,2.7-13.8,2.7H94.9V14.8H124.7z M123.6,71.2c2.2,0,4.3-0.4,6.4-1.1
			c2.1-0.7,3.9-1.9,5.5-3.5c1.6-1.6,2.9-3.8,3.9-6.4c1-2.6,1.5-5.9,1.5-9.7c0-3.5-0.3-6.6-1-9.4c-0.7-2.8-1.8-5.2-3.3-7.2
			c-1.6-2-3.6-3.5-6.2-4.6c-2.6-1.1-5.7-1.6-9.4-1.6h-10.9v43.6H123.6z"/>
		
			<linearGradient id="SVGID_00000113331986766720006900000012944211034201923981_" gradientUnits="userSpaceOnUse" x1="83.4792" y1="34.2868" x2="397.9237" y2="108.2738">
			<stop  offset="1.169892e-03" style="stop-color:#17B2C0"/>
			<stop  offset="1" style="stop-color:#1587C9"/>
		</linearGradient>
		<path style="fill:url(#SVGID_00000113331986766720006900000012944211034201923981_);" d="M164.2,48.1c1.2-3.3,3-6,5.2-8.3
			c2.3-2.3,5-4.1,8.1-5.3c3.2-1.3,6.7-1.9,10.7-1.9c3.9,0,7.5,0.6,10.7,1.9c3.2,1.3,5.9,3,8.2,5.3c2.3,2.3,4,5.1,5.2,8.3
			c1.2,3.3,1.8,6.9,1.8,10.9c0,4-0.6,7.6-1.8,10.9c-1.2,3.2-3,6-5.2,8.3c-2.3,2.3-5,4.1-8.2,5.3c-3.2,1.2-6.8,1.8-10.7,1.8
			c-3.9,0-7.5-0.6-10.7-1.8c-3.2-1.2-5.9-3-8.1-5.3c-2.3-2.3-4-5.1-5.2-8.3c-1.2-3.2-1.8-6.8-1.8-10.9
			C162.3,55,162.9,51.4,164.2,48.1z M176.7,64.9c0.4,1.9,1,3.6,2,5.1c0.9,1.5,2.2,2.7,3.7,3.6c1.6,0.9,3.5,1.4,5.8,1.4
			s4.3-0.5,5.9-1.4c1.6-0.9,2.8-2.1,3.8-3.6c0.9-1.5,1.6-3.2,2-5.1c0.4-1.9,0.6-3.9,0.6-5.9c0-2-0.2-4-0.6-5.9
			c-0.4-1.9-1.1-3.6-2-5.1c-0.9-1.5-2.2-2.7-3.8-3.6c-1.6-0.9-3.5-1.4-5.9-1.4s-4.3,0.5-5.8,1.4c-1.6,0.9-2.8,2.1-3.7,3.6
			c-0.9,1.5-1.6,3.2-2,5.1c-0.4,1.9-0.6,3.9-0.6,5.9C176.1,61,176.3,63,176.7,64.9z"/>
		
			<linearGradient id="SVGID_00000092457105244230101480000013907135984400993678_" gradientUnits="userSpaceOnUse" x1="86.479" y1="21.5376" x2="400.9235" y2="95.5245">
			<stop  offset="1.169892e-03" style="stop-color:#17B2C0"/>
			<stop  offset="1" style="stop-color:#1587C9"/>
		</linearGradient>
		<path style="fill:url(#SVGID_00000092457105244230101480000013907135984400993678_);" d="M245.3,42.9c-2.2,0-4,0.5-5.5,1.5
			c-1.5,1-2.7,2.3-3.6,3.9c-0.9,1.6-1.6,3.3-2,5.2c-0.4,1.9-0.6,3.8-0.6,5.7c0,1.8,0.2,3.7,0.6,5.5c0.4,1.9,1,3.6,1.9,5.1
			c0.9,1.5,2.1,2.8,3.5,3.7c1.5,1,3.3,1.5,5.4,1.5c3.3,0,5.8-0.9,7.6-2.8c1.8-1.8,2.9-4.3,3.3-7.4h13.3c-0.9,6.7-3.5,11.7-7.8,15.2
			c-4.3,3.5-9.7,5.2-16.4,5.2c-3.7,0-7.2-0.6-10.3-1.9c-3.1-1.3-5.8-3-8-5.3c-2.2-2.3-3.9-5-5.1-8.1c-1.2-3.1-1.8-6.6-1.8-10.3
			c0-3.9,0.6-7.5,1.7-10.8c1.1-3.3,2.8-6.2,5-8.6c2.2-2.4,4.9-4.3,8-5.7c3.2-1.4,6.8-2,10.9-2c3,0,5.8,0.4,8.6,1.2
			c2.7,0.8,5.2,2,7.4,3.5c2.2,1.6,3.9,3.6,5.3,5.9c1.4,2.4,2.1,5.2,2.3,8.4h-13.5C254.5,45.8,251.2,42.9,245.3,42.9z"/>
		
			<linearGradient id="SVGID_00000081619286610976546490000012757172344156166290_" gradientUnits="userSpaceOnUse" x1="91.2612" y1="1.2133" x2="405.7057" y2="75.2002">
			<stop  offset="1.169892e-03" style="stop-color:#17B2C0"/>
			<stop  offset="1" style="stop-color:#1587C9"/>
		</linearGradient>
		<path style="fill:url(#SVGID_00000081619286610976546490000012757172344156166290_);" d="M309.6,14.8c4.3,0,8,0.6,11,1.9
			c3,1.3,5.5,2.9,7.4,5c1.9,2.1,3.3,4.4,4.2,7.1c0.9,2.6,1.3,5.4,1.3,8.2c0,2.8-0.4,5.5-1.3,8.2c-0.9,2.7-2.3,5.1-4.2,7.1
			c-1.9,2.1-4.4,3.7-7.4,5c-3,1.3-6.7,1.9-11,1.9h-16V84h-15.2V14.8H309.6z M305.5,47.4c1.7,0,3.4-0.1,5-0.4c1.6-0.3,3-0.8,4.3-1.5
			c1.2-0.7,2.2-1.8,3-3.1c0.7-1.4,1.1-3.1,1.1-5.3c0-2.2-0.4-4-1.1-5.3c-0.7-1.4-1.7-2.4-3-3.1c-1.2-0.7-2.7-1.2-4.3-1.5
			c-1.6-0.3-3.3-0.4-5-0.4h-11.8v20.7H305.5z"/>
		
			<linearGradient id="SVGID_00000152242467127134289860000016153830320253952679_" gradientUnits="userSpaceOnUse" x1="92.4195" y1="-3.7095" x2="406.864" y2="70.2774">
			<stop  offset="1.169892e-03" style="stop-color:#17B2C0"/>
			<stop  offset="1" style="stop-color:#1587C9"/>
		</linearGradient>
		<path style="fill:url(#SVGID_00000152242467127134289860000016153830320253952679_);" d="M337.6,49.3c0.2-3.2,1-5.9,2.4-8
			c1.4-2.1,3.2-3.8,5.4-5.1c2.2-1.3,4.7-2.2,7.4-2.8c2.7-0.5,5.5-0.8,8.3-0.8c2.5,0,5.1,0.2,7.7,0.5c2.6,0.4,4.9,1.1,7.1,2.1
			c2.1,1,3.9,2.5,5.2,4.3s2,4.3,2,7.3v26.1c0,2.3,0.1,4.4,0.4,6.5c0.3,2.1,0.7,3.6,1.4,4.7h-14c-0.3-0.8-0.5-1.6-0.6-2.4
			c-0.2-0.8-0.3-1.6-0.3-2.5c-2.2,2.3-4.8,3.8-7.8,4.7c-3,0.9-6,1.4-9.1,1.4c-2.4,0-4.6-0.3-6.7-0.9c-2.1-0.6-3.9-1.5-5.4-2.7
			c-1.6-1.2-2.8-2.8-3.6-4.7c-0.9-1.9-1.3-4.1-1.3-6.7c0-2.8,0.5-5.2,1.5-7c1-1.8,2.3-3.3,3.9-4.4c1.6-1.1,3.4-1.9,5.4-2.5
			c2-0.5,4.1-1,6.2-1.3c2.1-0.3,4.1-0.6,6.1-0.8c2-0.2,3.8-0.5,5.3-0.9c1.6-0.4,2.8-1,3.7-1.7c0.9-0.7,1.3-1.8,1.3-3.2
			c0-1.5-0.2-2.7-0.7-3.5c-0.5-0.9-1.1-1.6-1.9-2c-0.8-0.5-1.7-0.8-2.8-1c-1.1-0.2-2.2-0.2-3.4-0.2c-2.7,0-4.8,0.6-6.4,1.7
			c-1.6,1.2-2.5,3.1-2.7,5.8H337.6z M369.4,59.5c-0.6,0.5-1.3,0.9-2.2,1.2s-1.8,0.5-2.8,0.7c-1,0.2-2.1,0.4-3.1,0.5
			c-1.1,0.1-2.2,0.3-3.3,0.5c-1,0.2-2.1,0.5-3.1,0.8c-1,0.3-1.9,0.8-2.6,1.3c-0.7,0.5-1.3,1.2-1.8,2.1c-0.5,0.8-0.7,1.9-0.7,3.2
			c0,1.2,0.2,2.3,0.7,3.1c0.5,0.8,1.1,1.5,1.8,2c0.8,0.5,1.7,0.8,2.7,1c1,0.2,2.1,0.3,3.2,0.3c2.7,0,4.8-0.5,6.3-1.4
			c1.5-0.9,2.6-2,3.3-3.2c0.7-1.3,1.1-2.5,1.3-3.8c0.2-1.3,0.2-2.3,0.2-3.1V59.5z"/>
		
			<linearGradient id="SVGID_00000116204869949624071760000017366815268334821002_" gradientUnits="userSpaceOnUse" x1="96.7682" y1="-22.1915" x2="411.2127" y2="51.7955">
			<stop  offset="1.169892e-03" style="stop-color:#17B2C0"/>
			<stop  offset="1" style="stop-color:#1587C9"/>
		</linearGradient>
		<path style="fill:url(#SVGID_00000116204869949624071760000017366815268334821002_);" d="M408,14.8V84h-13.8V14.8H408z"/>
	</g>
</g>
</svg>
