<?xml version="1.0" encoding="utf-8"?>
<!-- Generator: Adobe Illustrator 26.0.1, SVG Export Plug-In . SVG Version: 6.00 Build 0)  -->
<svg version="1.1" id="Layer_1" xmlns="http://www.w3.org/2000/svg" xmlns:xlink="http://www.w3.org/1999/xlink" x="0px" y="0px"
	 viewBox="0 0 412 100" style="enable-background:new 0 0 412 100;" xml:space="preserve">
<g>
	<g>
		<path style="fill:#17B2C0;" d="M41.2,69.9L30.6,93.5l-2.9,3.3l-3.2,1.9H4c-2.1,0-3.7-1.7-3.7-3.7V3.7C0.3,1.7,1.9,0,4,0h51
			c8.4,0,15.1,6.8,15.1,15.1v31.3l-4.7,8.4l-3.7,3.5L41.2,69.9z"/>
		<linearGradient id="SVGID_1_" gradientUnits="userSpaceOnUse" x1="32.9389" y1="57.9345" x2="51.4149" y2="76.4106">
			<stop  offset="0" style="stop-color:#1D3D78"/>
			<stop  offset="0.7162" style="stop-color:#232D5A"/>
			<stop  offset="0.8281" style="stop-color:#222F5D"/>
			<stop  offset="0.918" style="stop-color:#203467"/>
			<stop  offset="1" style="stop-color:#1D3D78"/>
		</linearGradient>
		<path style="fill:url(#SVGID_1_);" d="M70.1,43.1v3.4c0,4.3-2.2,6.9-2.2,6.9L28.9,96.7c0,0-2.4,2.1-4.1,2.1h-3
			c3.7,0,6.8-3,6.8-6.7c0,0,0,0,0,0V64.7c0-4.1,3.3-7.4,7.4-7.4h20.1C59.8,57.2,70.1,46,70.1,43.1z"/>
		
			<linearGradient id="SVGID_00000051354821879332348900000003047244578659587471_" gradientUnits="userSpaceOnUse" x1="65.7955" y1="52.723" x2="61.2391" y2="48.1666">
			<stop  offset="0" style="stop-color:#0997BF"/>
			<stop  offset="1" style="stop-color:#17B2C0"/>
		</linearGradient>
		<path style="fill:url(#SVGID_00000051354821879332348900000003047244578659587471_);" d="M52.5,57.2H55c8.3,0,15.1-6.8,15.1-15.1
			v-2.9L52.5,57.2z"/>
		
			<linearGradient id="SVGID_00000137814961703208024530000002136925676441599142_" gradientUnits="userSpaceOnUse" x1="26.5979" y1="96.7573" x2="22.3813" y2="92.5407">
			<stop  offset="0" style="stop-color:#0997BF"/>
			<stop  offset="1" style="stop-color:#17B2C0"/>
		</linearGradient>
		<path style="fill:url(#SVGID_00000137814961703208024530000002136925676441599142_);" d="M16.4,98.8h5.4c3.7,0,6.8-3,6.8-6.8v-5.6
			L16.4,98.8z"/>
	</g>
	<g>
		
			<linearGradient id="SVGID_00000020368469887454746490000009117400419460087996_" gradientUnits="userSpaceOnUse" x1="81.8205" y1="42.2458" x2="396.0553" y2="116.1834">
			<stop  offset="0" style="stop-color:#17B2C0"/>
			<stop  offset="1" style="stop-color:#1587C9"/>
		</linearGradient>
		<path style="fill:url(#SVGID_00000020368469887454746490000009117400419460087996_);" d="M124.9,14.8c4.5,0,8.6,0.7,12.4,2.1
			c3.8,1.4,7.2,3.6,10,6.4c2.8,2.8,5,6.4,6.6,10.7c1.6,4.3,2.4,9.3,2.4,15c0,5-0.6,9.7-1.9,13.9c-1.3,4.3-3.2,7.9-5.9,11
			c-2.6,3.1-5.9,5.5-9.8,7.3c-3.9,1.8-8.5,2.7-13.8,2.7H95.1V14.8H124.9z M123.8,71.2c2.2,0,4.3-0.4,6.4-1.1
			c2.1-0.7,3.9-1.9,5.5-3.5c1.6-1.6,2.9-3.8,3.9-6.4c1-2.6,1.5-5.9,1.5-9.7c0-3.5-0.3-6.6-1-9.4c-0.7-2.8-1.8-5.2-3.3-7.2
			c-1.5-2-3.6-3.5-6.2-4.6c-2.6-1.1-5.7-1.6-9.4-1.6h-10.8v43.6H123.8z"/>
		
			<linearGradient id="SVGID_00000090255341997410954150000013988360496453982611_" gradientUnits="userSpaceOnUse" x1="83.6956" y1="34.2767" x2="397.9304" y2="108.2143">
			<stop  offset="1.169892e-03" style="stop-color:#17B2C0"/>
			<stop  offset="1" style="stop-color:#1587C9"/>
		</linearGradient>
		<path style="fill:url(#SVGID_00000090255341997410954150000013988360496453982611_);" d="M164.3,48.1c1.2-3.3,3-6,5.2-8.3
			c2.3-2.3,5-4.1,8.1-5.3c3.2-1.3,6.7-1.9,10.7-1.9c3.9,0,7.5,0.6,10.7,1.9c3.2,1.3,5.9,3,8.2,5.3c2.3,2.3,4,5.1,5.2,8.3
			c1.2,3.3,1.8,6.9,1.8,10.9c0,4-0.6,7.6-1.8,10.8c-1.2,3.2-3,6-5.2,8.3c-2.3,2.3-5,4.1-8.2,5.3c-3.2,1.2-6.8,1.8-10.7,1.8
			c-3.9,0-7.5-0.6-10.7-1.8c-3.2-1.2-5.9-3-8.1-5.3c-2.3-2.3-4-5.1-5.2-8.3c-1.2-3.2-1.8-6.8-1.8-10.8
			C162.5,55,163.1,51.4,164.3,48.1z M176.8,64.8c0.4,1.9,1,3.6,2,5.1c0.9,1.5,2.2,2.7,3.7,3.6c1.5,0.9,3.5,1.4,5.8,1.4
			c2.3,0,4.3-0.5,5.9-1.4c1.6-0.9,2.8-2.1,3.8-3.6c0.9-1.5,1.6-3.2,2-5.1c0.4-1.9,0.6-3.9,0.6-5.9c0-2-0.2-4-0.6-5.9
			c-0.4-1.9-1.1-3.6-2-5.1c-0.9-1.5-2.2-2.7-3.8-3.6c-1.6-0.9-3.5-1.4-5.9-1.4c-2.3,0-4.3,0.5-5.8,1.4c-1.5,0.9-2.8,2.1-3.7,3.6
			c-0.9,1.5-1.6,3.2-2,5.1c-0.4,1.9-0.6,3.9-0.6,5.9C176.2,61,176.4,62.9,176.8,64.8z"/>
		
			<linearGradient id="SVGID_00000174561237461951432320000017308832618017075610_" gradientUnits="userSpaceOnUse" x1="86.6934" y1="21.5359" x2="400.9282" y2="95.4735">
			<stop  offset="1.169892e-03" style="stop-color:#17B2C0"/>
			<stop  offset="1" style="stop-color:#1587C9"/>
		</linearGradient>
		<path style="fill:url(#SVGID_00000174561237461951432320000017308832618017075610_);" d="M245.4,42.9c-2.2,0-4,0.5-5.5,1.5
			c-1.5,1-2.7,2.3-3.6,3.9c-0.9,1.6-1.6,3.3-2,5.2c-0.4,1.9-0.6,3.8-0.6,5.7c0,1.8,0.2,3.6,0.6,5.5c0.4,1.9,1,3.6,1.9,5.1
			c0.9,1.5,2,2.8,3.5,3.7c1.5,1,3.3,1.5,5.4,1.5c3.3,0,5.8-0.9,7.6-2.8c1.8-1.8,2.9-4.3,3.3-7.4h13.3c-0.9,6.7-3.5,11.7-7.7,15.2
			c-4.3,3.5-9.7,5.2-16.4,5.2c-3.7,0-7.2-0.6-10.3-1.9c-3.1-1.3-5.8-3-8-5.3c-2.2-2.3-3.9-5-5.1-8.1c-1.2-3.1-1.8-6.6-1.8-10.3
			c0-3.9,0.6-7.5,1.7-10.8c1.1-3.3,2.8-6.2,5-8.6c2.2-2.4,4.9-4.3,8-5.7c3.2-1.4,6.8-2,10.8-2c3,0,5.8,0.4,8.6,1.2
			c2.7,0.8,5.2,2,7.4,3.5c2.2,1.6,3.9,3.6,5.3,5.9c1.4,2.4,2.1,5.1,2.3,8.4h-13.5C254.7,45.8,251.3,42.9,245.4,42.9z"/>
		
			<linearGradient id="SVGID_00000047763605655713202260000013415383149678293394_" gradientUnits="userSpaceOnUse" x1="91.4724" y1="1.2251" x2="405.7072" y2="75.1627">
			<stop  offset="1.169892e-03" style="stop-color:#17B2C0"/>
			<stop  offset="1" style="stop-color:#1587C9"/>
		</linearGradient>
		<path style="fill:url(#SVGID_00000047763605655713202260000013415383149678293394_);" d="M309.7,14.8c4.3,0,8,0.6,11,1.9
			c3,1.3,5.5,2.9,7.4,5c1.9,2.1,3.3,4.4,4.2,7.1c0.9,2.6,1.3,5.4,1.3,8.2c0,2.8-0.4,5.5-1.3,8.2c-0.9,2.7-2.3,5.1-4.2,7.1
			c-1.9,2.1-4.4,3.7-7.4,5c-3,1.3-6.7,1.9-11,1.9h-16V84h-15.2V14.8H309.7z M305.5,47.4c1.7,0,3.4-0.1,5-0.4c1.6-0.3,3-0.8,4.3-1.5
			c1.2-0.7,2.2-1.8,3-3.1c0.7-1.4,1.1-3.1,1.1-5.3c0-2.2-0.4-4-1.1-5.3c-0.7-1.4-1.7-2.4-3-3.1c-1.2-0.7-2.6-1.2-4.3-1.5
			c-1.6-0.3-3.3-0.4-5-0.4h-11.8v20.7H305.5z"/>
		
			<linearGradient id="SVGID_00000101075010111517600550000000312398331256888989_" gradientUnits="userSpaceOnUse" x1="92.6299" y1="-3.6944" x2="406.8647" y2="70.2432">
			<stop  offset="1.169892e-03" style="stop-color:#17B2C0"/>
			<stop  offset="1" style="stop-color:#1587C9"/>
		</linearGradient>
		<path style="fill:url(#SVGID_00000101075010111517600550000000312398331256888989_);" d="M337.7,49.3c0.2-3.2,1-5.9,2.4-8
			c1.4-2.1,3.2-3.8,5.4-5.1c2.2-1.3,4.7-2.2,7.4-2.8c2.7-0.5,5.5-0.8,8.3-0.8c2.5,0,5.1,0.2,7.7,0.5c2.6,0.4,4.9,1.1,7.1,2.1
			c2.1,1,3.9,2.5,5.2,4.3c1.4,1.8,2,4.3,2,7.3v26.1c0,2.3,0.1,4.4,0.4,6.5c0.3,2.1,0.7,3.6,1.4,4.6H371c-0.3-0.8-0.5-1.6-0.6-2.4
			c-0.2-0.8-0.3-1.6-0.3-2.5c-2.2,2.3-4.8,3.8-7.7,4.7c-3,0.9-6,1.4-9.1,1.4c-2.4,0-4.6-0.3-6.7-0.9c-2.1-0.6-3.9-1.5-5.4-2.7
			c-1.5-1.2-2.8-2.8-3.6-4.6c-0.9-1.9-1.3-4.1-1.3-6.7c0-2.8,0.5-5.2,1.5-7c1-1.8,2.3-3.3,3.9-4.4c1.6-1.1,3.4-1.9,5.4-2.5
			c2-0.5,4.1-1,6.2-1.3c2.1-0.3,4.1-0.6,6.1-0.8c2-0.2,3.8-0.5,5.3-0.9c1.5-0.4,2.8-1,3.7-1.7c0.9-0.7,1.3-1.8,1.3-3.2
			c0-1.5-0.2-2.7-0.7-3.5c-0.5-0.9-1.1-1.5-1.9-2c-0.8-0.5-1.7-0.8-2.8-1c-1.1-0.2-2.2-0.2-3.4-0.2c-2.7,0-4.8,0.6-6.4,1.7
			c-1.5,1.2-2.5,3.1-2.7,5.8H337.7z M369.5,59.5c-0.6,0.5-1.3,0.9-2.2,1.2c-0.9,0.3-1.8,0.5-2.8,0.7c-1,0.2-2.1,0.4-3.1,0.5
			c-1.1,0.1-2.2,0.3-3.3,0.5c-1,0.2-2.1,0.5-3.1,0.8c-1,0.3-1.9,0.8-2.6,1.3c-0.7,0.5-1.3,1.2-1.8,2.1c-0.5,0.8-0.7,1.9-0.7,3.2
			c0,1.2,0.2,2.3,0.7,3.1c0.5,0.8,1.1,1.5,1.8,2c0.8,0.5,1.7,0.8,2.7,1c1,0.2,2.1,0.3,3.2,0.3c2.7,0,4.8-0.5,6.3-1.4
			c1.5-0.9,2.6-2,3.3-3.2c0.7-1.3,1.1-2.5,1.3-3.8c0.2-1.3,0.2-2.3,0.2-3.1V59.5z"/>
		
			<linearGradient id="SVGID_00000155843232181386448990000000917354201069103279_" gradientUnits="userSpaceOnUse" x1="96.9757" y1="-22.164" x2="411.2105" y2="51.7736">
			<stop  offset="1.169892e-03" style="stop-color:#17B2C0"/>
			<stop  offset="1" style="stop-color:#1587C9"/>
		</linearGradient>
		<path style="fill:url(#SVGID_00000155843232181386448990000000917354201069103279_);" d="M408,14.8V84h-13.8V14.8H408z"/>
	</g>
</g>
</svg>
