<?xml version="1.0" encoding="utf-8"?>
<!-- Generator: Adobe Illustrator 26.0.1, SVG Export Plug-In . SVG Version: 6.00 Build 0)  -->
<svg version="1.1" id="Layer_1" xmlns="http://www.w3.org/2000/svg" xmlns:xlink="http://www.w3.org/1999/xlink" x="0px" y="0px"
	 viewBox="0 0 102 102" style="enable-background:new 0 0 102 102;" xml:space="preserve">
<style type="text/css">
	.st0{fill:#17B2C0;}
	.st1{fill:url(#SVGID_1_);}
	.st2{fill:url(#SVGID_00000129195245118911174490000003411362028018678185_);}
	.st3{fill:url(#SVGID_00000100368051625302066400000008701537914017546939_);}
</style>
<g>
	<path class="st0" d="M57,71.7l-10.7,24l-3,3.4l-3.2,2H19.4c-2.1,0-3.8-1.7-3.8-3.8V4.8c0-2.1,1.7-3.8,3.8-3.8H71
		c8.5,0,15.3,6.9,15.3,15.3V48l-4.7,8.5l-3.7,3.6L57,71.7z"/>
	
		<linearGradient id="SVGID_1_" gradientUnits="userSpaceOnUse" x1="48.6558" y1="42.3942" x2="67.344" y2="23.706" gradientTransform="matrix(1 0 0 -1 0 102)">
		<stop  offset="0" style="stop-color:#1C7EB2"/>
		<stop  offset="0.7162" style="stop-color:#1B74B1"/>
		<stop  offset="0.8928" style="stop-color:#1B77B1"/>
		<stop  offset="1" style="stop-color:#1C7EB2"/>
	</linearGradient>
	<path class="st1" d="M86.3,44.6V48c0,4.3-2.2,7-2.2,7L44.6,98.8c0,0-2.4,2.1-4.2,2.1h-3.1c3.8,0,6.8-3.1,6.8-6.8l0,0V66.4
		c0-4.2,3.4-7.5,7.5-7.5h20.3C75.9,58.9,86.3,47.5,86.3,44.6z"/>
	
		<linearGradient id="SVGID_00000041975538816684831010000017265612541706434223_" gradientUnits="userSpaceOnUse" x1="81.9121" y1="47.688" x2="77.3033" y2="52.2966" gradientTransform="matrix(1 0 0 -1 0 102)">
		<stop  offset="0" style="stop-color:#0997BF"/>
		<stop  offset="1" style="stop-color:#17B2C0"/>
	</linearGradient>
	<path style="fill:url(#SVGID_00000041975538816684831010000017265612541706434223_);" d="M68.5,58.9H71c8.4,0,15.3-6.8,15.3-15.3
		v-2.9L68.5,58.9z"/>
	
		<linearGradient id="SVGID_00000037684118431939513720000016207215047520764832_" gradientUnits="userSpaceOnUse" x1="42.2563" y1="3.1437" x2="37.9912" y2="7.4088" gradientTransform="matrix(1 0 0 -1 0 102)">
		<stop  offset="0" style="stop-color:#0997BF"/>
		<stop  offset="1" style="stop-color:#17B2C0"/>
	</linearGradient>
	<path style="fill:url(#SVGID_00000037684118431939513720000016207215047520764832_);" d="M31.9,100.9h5.5c3.8,0,6.8-3.1,6.8-6.8
		v-5.7L31.9,100.9z"/>
</g>
</svg>
