<?xml version="1.0" encoding="utf-8"?>
<!-- Generator: Adobe Illustrator 26.0.1, SVG Export Plug-In . SVG Version: 6.00 Build 0)  -->
<svg version="1.1" id="Layer_1" xmlns="http://www.w3.org/2000/svg" xmlns:xlink="http://www.w3.org/1999/xlink" x="0px" y="0px"
	 viewBox="0 0 102 102" style="enable-background:new 0 0 102 102;" xml:space="preserve">
<style type="text/css">
	.st0{fill:#17B2C0;}
	.st1{fill:url(#SVGID_1_);}
	.st2{fill:url(#SVGID_00000096740152409173484270000007814070350196139437_);}
	.st3{fill:url(#SVGID_00000054986586234292039400000008055640153608873111_);}
</style>
<g>
	<path class="st0" d="M57,71.7l-10.7,24l-3,3.4l-3.2,2H19.4c-2.1,0-3.8-1.7-3.8-3.8V4.8c0-2.1,1.7-3.8,3.8-3.8H71
		c8.5,0,15.3,6.9,15.3,15.3V48l-4.7,8.5l-3.7,3.6L57,71.7z"/>
	
		<linearGradient id="SVGID_1_" gradientUnits="userSpaceOnUse" x1="48.6566" y1="42.3434" x2="67.3564" y2="23.6436" gradientTransform="matrix(1 0 0 -1 0 102)">
		<stop  offset="0" style="stop-color:#1D3D78"/>
		<stop  offset="0.7162" style="stop-color:#232D5A"/>
		<stop  offset="0.8281" style="stop-color:#222F5D"/>
		<stop  offset="0.918" style="stop-color:#203467"/>
		<stop  offset="1" style="stop-color:#1D3D78"/>
	</linearGradient>
	<path class="st1" d="M86.3,44.6V48c0,4.3-2.2,7-2.2,7L44.6,98.9c0,0-2.4,2.1-4.2,2.1h-3.1c3.8,0,6.8-3.1,6.9-6.8l0,0V66.5
		c0-4.2,3.4-7.5,7.5-7.5H72C75.9,58.9,86.3,47.5,86.3,44.6z"/>
	
		<linearGradient id="SVGID_00000080179453647337067800000000528994242695923878_" gradientUnits="userSpaceOnUse" x1="81.9466" y1="47.6534" x2="77.335" y2="52.265" gradientTransform="matrix(1 0 0 -1 0 102)">
		<stop  offset="0" style="stop-color:#0997BF"/>
		<stop  offset="1" style="stop-color:#17B2C0"/>
	</linearGradient>
	<path style="fill:url(#SVGID_00000080179453647337067800000000528994242695923878_);" d="M68.5,58.9H71c8.4,0,15.3-6.8,15.3-15.3
		v-2.9L68.5,58.9z"/>
	
		<linearGradient id="SVGID_00000141429196134869679940000003383098424201123459_" gradientUnits="userSpaceOnUse" x1="42.2942" y1="3.1058" x2="38.0265" y2="7.3735" gradientTransform="matrix(1 0 0 -1 0 102)">
		<stop  offset="0" style="stop-color:#0997BF"/>
		<stop  offset="1" style="stop-color:#17B2C0"/>
	</linearGradient>
	<path style="fill:url(#SVGID_00000141429196134869679940000003383098424201123459_);" d="M31.9,101h5.5c3.8,0,6.9-3.1,6.9-6.9v-5.7
		L31.9,101z"/>
</g>
</svg>
